<svg xmlns="http://www.w3.org/2000/svg" xmlns:xlink="http://www.w3.org/1999/xlink" width="500" zoomAndPan="magnify" viewBox="0 0 375 225" height="300" preserveAspectRatio="xMidYMid meet" version="1.0"><defs><g/></defs><g fill="#ffffff" fill-opacity="1"><g transform="translate(-19.659049, 225.510841)"><g><path d="M 121.097656 -226.050781 L 16.46875 -226.050781 L 16.46875 0 L 120.453125 0 C 167.921875 0 192.789062 -36.492188 192.789062 -72.980469 C 192.789062 -92.035156 183.101562 -111.734375 159.203125 -124.003906 C 174.058594 -134.339844 180.839844 -150.164062 180.839844 -165.664062 C 180.839844 -195.371094 156.945312 -226.050781 121.097656 -226.050781 Z M 112.703125 -144.351562 L 71.042969 -144.351562 L 71.042969 -175.996094 L 113.347656 -175.996094 C 122.066406 -175.996094 126.910156 -168.246094 126.910156 -160.496094 C 126.910156 -152.421875 122.390625 -144.351562 112.703125 -144.351562 Z M 120.453125 -52.316406 L 71.042969 -52.316406 L 71.042969 -93.328125 L 120.453125 -93.328125 C 132.078125 -93.328125 137.890625 -82.992188 137.890625 -72.660156 C 137.890625 -62.324219 132.078125 -52.316406 120.453125 -52.316406 Z M 120.453125 -52.316406 "/></g></g></g><g fill="#ffffff" fill-opacity="1"><g transform="translate(155.045705, 225.510841)"><g><path d="M 119.484375 -138.539062 L 60.066406 -226.050781 L 16.148438 -226.050781 L 16.148438 0 L 71.367188 0 L 71.367188 -112.378906 L 103.984375 -63.617188 L 134.660156 -63.617188 L 167.277344 -111.734375 L 167.277344 0 L 222.175781 0 L 222.175781 -226.050781 L 178.902344 -226.050781 Z M 119.484375 -138.539062 "/></g></g></g></svg>